<svg width="120" height="120" viewBox="0 0 120 120" fill="none" xmlns="http://www.w3.org/2000/svg" role="img" aria-label="AeroSmooth Labs mark">
  <rect width="120" height="120" rx="28" fill="url(#bg)"/>
  <path d="M18 78C35 66 53 58 78 58C88 58 98 59.5 108 62" stroke="url(#sky)" stroke-width="4" stroke-linecap="round"/>
  <path d="M23 82H101" stroke="#D7F3FF" stroke-width="2.4" stroke-linecap="round" opacity=".95"/>
  <path d="M51 52L93 34C96 33 98 36 95 38L68 57L52 71C49 74 45 71 47 67L52 58L32 54C28 53 28 48 33 48L51 52Z" fill="url(#plane)"/>
  <path d="M52 58L84 40" stroke="#083044" stroke-width="2" stroke-linecap="round" opacity=".38"/>
  <path d="M35 88H88" stroke="#79E6FF" stroke-width="3" stroke-linecap="round" opacity=".75"/>
  <defs>
    <linearGradient id="bg" x1="16" y1="7" x2="105" y2="113" gradientUnits="userSpaceOnUse">
      <stop stop-color="#061827"/>
      <stop offset=".48" stop-color="#0A2E43"/>
      <stop offset="1" stop-color="#063F4E"/>
    </linearGradient>
    <linearGradient id="sky" x1="18" y1="58" x2="108" y2="58" gradientUnits="userSpaceOnUse">
      <stop stop-color="#7AE8FF" stop-opacity=".25"/>
      <stop offset=".55" stop-color="#B6F7FF"/>
      <stop offset="1" stop-color="#FFCF8C"/>
    </linearGradient>
    <linearGradient id="plane" x1="31" y1="35" x2="94" y2="71" gradientUnits="userSpaceOnUse">
      <stop stop-color="#F6FDFF"/>
      <stop offset=".55" stop-color="#94F0FF"/>
      <stop offset="1" stop-color="#FFCF8C"/>
    </linearGradient>
  </defs>
</svg>
